Title:
Kill Me Aka Töte Mich

Country:
Germany/2012

Language:
German

Subtitle:
English

Director:
Emily Atef

Writers:
Emily Atef, Esther Bernstorff

Stars:
Maria-Victoria Dragus, Roeland Wiesnekker, Wolfram Koch

Synopsis:
Fifteen-year-old ADELE wants to die. She's felt alienated by everything around her since the death of her brother. All that remains in her dull, hard-working life is profound sadness. TIMO (43) is on the run. Eight years ago he had been found guilty of murder and jailed. Now he has finally managed to break out of prison. Injured and exhausted, he tries to hide on Adele's parents' farm.When Adele discovers the escapee, she makes him a frank and eerie offer: she will help him to flee, but once they are in safety, Timo is to kill her. Timo is forced by his circumstances to accept this morbid pact.Suspicion and distrust accompany them on a journey that leads them all the way to Marseille. The boundary between perpetrator and victim fades. The frail Timo can barely stand to be close to this girl; Adele reminds him of his dark duties. The more difficult circumstances become, the more this peculiar couple has to trust each other and eventually both find their way back into life.

Imdb: 
http://www.imdb.com/title/tt1789091

Trailer: 
http://www.bandes-annonces.fr/film/bande-annonce-tuemoi.html


Media Info:

General
Complete name                            : Kill.Me.2012.DVDRip.XviD.AC3.HORiZON-ArtSubs
Format                                   : AVI
Format/Info                              : Audio Video Interleave
File size                                : 1.37 GiB
Duration                                 : 1h 28mn
Overall bit rate                         : 2 216 Kbps
Writing application                      : FairUse Wizard - http://fairusewizard.com
Writing library                          : The best and REALLY easy backup tool

Video
ID                                       : 0
Format                                   : MPEG-4 Visual
Format profile                           : Advanced Simple@L5
Format settings, BVOP                    : 1
Format settings, QPel                    : No
Format settings, GMC                     : No warppoints
Format settings, Matrix                  : Default (MPEG)
Muxing mode                              : Packed bitstream
Codec ID                                 : XVID
Codec ID/Hint                            : XviD
Duration                                 : 1h 28mn
Bit rate                                 : 1 759 Kbps
Width                                    : 704 pixels
Height                                   : 288 pixels
Display aspect ratio                     : 2.40:1
Frame rate                               : 25.000 fps
Color space                              : YUV
Chroma subsampling                       : 4:2:0
Bit depth                                : 8 bits
Scan type                                : Progressive
Compression mode                         : Lossy
Bits/(Pixel*Frame)                       : 0.347
Stream size                              : 1.08 GiB (79%)
Writing library                          : XviD 1.2.0.dev47 (UTC 2006-11-01)

Audio
ID                                       : 1
Format                                   : AC-3
Format/Info                              : Audio Coding 3
Mode extension                           : CM (complete main)
Format settings, Endianness              : Big
Codec ID                                 : 2000
Duration                                 : 1h 28mn
Bit rate mode                            : Constant
Bit rate                                 : 448 Kbps
Channel(s)                               : 6 channels
Channel positions                        : Front: L C R, Side: L R, LFE
Sampling rate                            : 48.0 KHz
Bit depth                                : 16 bits
Compression mode                         : Lossy
Stream size                              : 283 MiB (20%)
Alignment                                : Split accross interleaves
Interleave, duration                     : 40 ms (1.00 video frame)
Interleave, preload duration             : 500 ms

